<svg data-v-423bf9ae="" xmlns="http://www.w3.org/2000/svg" viewBox="0 0 138 90" class="iconLeft"><!----><!----><!----><g data-v-423bf9ae="" id="cfa240af-2f97-4a78-914b-b1e7283c5eb4" fill="black" transform="matrix(5.357142948374458,0,0,5.357142948374458,64.96083045005797,9.374998490725247)"><path d="M0.70 10.23L0.70 10.23L0.70 8.76L0.70 8.76Q0.70 8.54 0.92 8.54L0.92 8.54L2.38 8.54L2.38 8.54Q2.60 8.54 2.60 8.76L2.60 8.76L2.60 9.84L2.60 9.84Q2.60 10.40 3.17 10.40L3.17 10.40L3.83 10.40L3.83 10.40Q4.40 10.40 4.40 9.84L4.40 9.84L4.40 7.98L1.08 6.89L1.08 6.89Q0.70 6.77 0.70 6.37L0.70 6.37L0.70 3.07L0.70 3.07Q0.70 2.08 1.22 1.57L1.22 1.57L1.22 1.57Q1.74 1.05 2.71 1.05L2.71 1.05L4.29 1.05L4.29 1.05Q5.28 1.05 5.79 1.57L5.79 1.57L5.79 1.57Q6.30 2.08 6.30 3.07L6.30 3.07L6.30 4.55L6.30 4.55Q6.30 4.77 6.08 4.77L6.08 4.77L4.62 4.77L4.62 4.77Q4.40 4.77 4.40 4.55L4.40 4.55L4.40 3.46L4.40 3.46Q4.40 2.90 3.83 2.90L3.83 2.90L3.17 2.90L3.17 2.90Q2.90 2.90 2.75 3.05L2.75 3.05L2.75 3.05Q2.60 3.19 2.60 3.46L2.60 3.46L2.60 5.39L5.93 6.48L5.93 6.48Q6.30 6.63 6.30 7L6.30 7L6.30 10.23L6.30 10.23Q6.30 11.22 5.79 11.74L5.79 11.74L5.79 11.74Q5.28 12.25 4.29 12.25L4.29 12.25L2.71 12.25L2.71 12.25Q1.74 12.25 1.22 11.73L1.22 11.73L1.22 11.73Q0.70 11.22 0.70 10.23ZM7.70 10.23L7.70 10.23L7.70 3.07L7.70 3.07Q7.70 2.08 8.21 1.57L8.21 1.57L8.21 1.57Q8.72 1.05 9.71 1.05L9.71 1.05L11.57 1.05L11.57 1.05Q12.54 1.05 13.06 1.57L13.06 1.57L13.06 1.57Q13.58 2.08 13.58 3.07L13.58 3.07L13.58 4.53L13.58 4.53Q13.58 4.74 13.36 4.74L13.36 4.74L11.96 4.74L11.96 4.74Q11.73 4.74 11.73 4.53L11.73 4.53L11.73 3.46L11.73 3.46Q11.73 2.90 11.17 2.90L11.17 2.90L10.17 2.90L10.17 2.90Q9.60 2.90 9.60 3.46L9.60 3.46L9.60 9.84L9.60 9.84Q9.60 10.40 10.17 10.40L10.17 10.40L11.17 10.40L11.17 10.40Q11.73 10.40 11.73 9.84L11.73 9.84L11.73 7.96L11.01 7.96L11.01 7.96Q10.78 7.96 10.78 7.75L10.78 7.75L10.78 6.34L10.78 6.34Q10.78 6.12 11.01 6.12L11.01 6.12L13.36 6.12L13.36 6.12Q13.58 6.12 13.58 6.34L13.58 6.34L13.58 10.23L13.58 10.23Q13.58 11.22 13.06 11.73L13.06 11.73L13.06 11.73Q12.54 12.25 11.57 12.25L11.57 12.25L9.71 12.25L9.71 12.25Q8.72 12.25 8.21 11.74L8.21 11.74L8.21 11.74Q7.70 11.22 7.70 10.23Z"></path></g><!----><g data-v-423bf9ae="" id="76553b36-eda6-461e-8b3e-0f9e811ac048" transform="matrix(1.0353872828087942,0,0,1.0353872828087942,-27.294379929800094,-6.231326674065706)" stroke="none" fill="black"><path d="M66.549 6.537H33.565c-3.867 0-7.031 3.164-7.031 7.031V86.43c0 3.867 3.164 7.031 7.031 7.031h32.984c3.867 0 7.031-3.164 7.031-7.031V13.569c.001-3.867-3.164-7.032-7.031-7.032zm-24.218 5.532h15.451c.654 0 1.189.535 1.189 1.189s-.535 1.189-1.189 1.189H42.331c-.654 0-1.189-.535-1.189-1.189s.535-1.189 1.189-1.189zm7.726 78.4a4.188 4.188 0 1 1 .001-8.375 4.188 4.188 0 0 1-.001 8.375zm20.159-11.323H29.898V19.383h40.318v59.763z"></path><path d="M39.356 58.044c-2.001 0-3.667-1.134-4.051-2.757l-1.325-6.015c-.335-1.417.379-2.959 1.792-3.923a14.476 14.476 0 0 1-.109-1.754 14.222 14.222 0 0 1 1.627-6.638c.113-.214.208-.388.307-.559.133-.226.232-.389.335-.55.146-.223.249-.377.355-.529.16-.221.268-.37.381-.517.233-.297.447-.555.665-.799a3.258 3.258 0 0 1 1.279-2.881 15.532 15.532 0 0 1 8.806-3.161l.16-.003c.467-.011.67-.009.967 0l.156.003a15.542 15.542 0 0 1 8.807 3.161 3.257 3.257 0 0 1 1.279 2.88 13.864 13.864 0 0 1 .992 1.244c.16.223.263.378.364.536a13.934 13.934 0 0 1 .96 1.728 14.277 14.277 0 0 1 1.245 7.839c1.413.962 2.128 2.505 1.792 3.93l-1.321 6c-.387 1.631-2.054 2.765-4.054 2.765-.419 0-.843-.05-1.258-.148l-1.107-.262c-.981-.226-1.687-.494-1.924-1.068-.251-.607.122-1.202.639-2.027.547-.871 1.295-2.065 1.71-3.827.432-1.835.29-3.333.187-4.428-.09-.948-.148-1.575.224-1.983.255-.283.626-.375 1.182-.263.007-.147.01-.294.01-.442l-.005-.238a10.558 10.558 0 0 0-.583-3.197 11.695 11.695 0 0 0-.329-.824 10.997 10.997 0 0 0-.626-1.174 11.752 11.752 0 0 0-.241-.372l.327-.405-.41.286c-.058-.083-.115-.166-.176-.246-.137-.18-.258-.333-.375-.474a3.608 3.608 0 0 1-.366.032l-.106.006a3.34 3.34 0 0 1-1.313-.277 3.624 3.624 0 0 1-.298-.151 3.772 3.772 0 0 1-.338-.22 9.062 9.062 0 0 0-5.526-1.863 9.032 9.032 0 0 0-5.501 1.845c-.108.08-.193.136-.281.189l-.089.052a3.243 3.243 0 0 1-1.604.424l-.128-.008a3.17 3.17 0 0 1-.346-.03 11.21 11.21 0 0 0-.58.762 12.136 12.136 0 0 0-.479.761c-.102.178-.16.289-.217.4a8.75 8.75 0 0 0-.2.412 10.858 10.858 0 0 0-.47 1.219l-.026.085a10.27 10.27 0 0 0-.438 2.701l-.008.303c0 .147.003.295.01.442.553-.113.925-.02 1.182.262.372.409.313 1.036.224 1.984-.103 1.094-.245 2.593.187 4.427.415 1.762 1.163 2.956 1.709 3.828.517.824.89 1.419.639 2.026-.238.574-.943.843-1.928 1.069l-1.104.261a5.35 5.35 0 0 1-1.259.151zM50.06 28.949l-.541.01c-3.059.121-5.909 1.144-8.303 2.96a2.262 2.262 0 0 0-.866 2.17l.039.241-.166.179a13.784 13.784 0 0 0-1.731 2.336 13.103 13.103 0 0 0-.572 1.09 13.255 13.255 0 0 0-1.258 5.66c0 .635.048 1.286.142 1.933l.048.332-.289.17c-1.22.719-1.867 1.932-1.61 3.019l1.325 6.015c.275 1.162 1.541 1.979 3.077 1.979.342 0 .688-.041 1.028-.121l1.107-.262c1.109-.255 1.222-.456 1.231-.479.054-.13-.317-.722-.562-1.113-.551-.878-1.383-2.206-1.836-4.13-.469-1.994-.312-3.652-.209-4.75.046-.485.103-1.089.025-1.227-.125.029-.33.058-.725.196l-.599.209-.063-.631a11.41 11.41 0 0 1-.058-1.141l.005-.253c.031-1.062.187-2.04.467-2.982l.026-.087a10.605 10.605 0 0 1 .318-.906 12.416 12.416 0 0 1 .4-.883 13.328 13.328 0 0 1 .476-.85l.056-.087c.067-.107.137-.215.209-.322l.06-.084a11.181 11.181 0 0 1 .836-1.067l.201-.227.293.073c.145.036.304.057.473.063a2.252 2.252 0 0 0 1.42-.445 10.05 10.05 0 0 1 6.125-2.062c2.226 0 4.337.708 6.105 2.048a2.49 2.49 0 0 0 .419.251 2.294 2.294 0 0 0 .95.213c.239-.012.398-.033.545-.068l.294-.073.201.228c.195.223.383.453.562.689.114.15.178.242.242.334l.089.126c.072.105.143.216.211.326l.061.095a10.81 10.81 0 0 1 .855 1.69 11.19 11.19 0 0 1 .337.948c.294.97.457 1.97.486 2.979.004.11.008.22.008.332 0 .381-.02.762-.058 1.141l-.062.631-.6-.209c-.395-.138-.6-.167-.702-.167-.101.108-.043.712.003 1.198.104 1.098.26 2.756-.21 4.75-.452 1.924-1.284 3.251-1.835 4.13-.246.392-.616.983-.562 1.113.009.022.121.224 1.228.478l1.11.263c.34.08.686.121 1.027.121 1.535 0 2.802-.817 3.079-1.987l1.321-5.999c.258-1.096-.39-2.309-1.609-3.026l-.289-.171.048-.333a13.261 13.261 0 0 0-1.657-8.63 13.518 13.518 0 0 0-.642-1.003c-.148-.205-.249-.345-.355-.481a13.782 13.782 0 0 0-.764-.904l-.167-.179.04-.241a2.26 2.26 0 0 0-.865-2.17 14.546 14.546 0 0 0-8.242-2.959l-.143-.002c-.155-.004-.307-.008-.458-.008zM48.371 71.652c-.294 0-.575-.127-.77-.349l-3.789-4.441a1.028 1.028 0 0 1-.242-.744c.022-.275.149-.523.357-.7l1.629-1.391a1.054 1.054 0 0 1 1.443.112l1.573 1.845 4.729-4.645c.386-.384 1.064-.378 1.447.013l1.505 1.531c.191.195.295.452.293.727a1.019 1.019 0 0 1-.302.718l-7.158 7.03a1.043 1.043 0 0 1-.715.294zm-2.13-6.862l-1.665 1.39 3.795 4.473c.009 0 .012-.003.013-.004l7.158-7.03-1.505-1.564-5.528 5.396-2.268-2.661z"></path></g><!----></svg>